<mxfile host="app.diagrams.net" modified="2022-07-14T09:58:23.750Z" agent="5.0 (Windows NT 10.0; Win64; x64) AppleWebKit/537.36 (KHTML, like Gecko) Chrome/103.0.0.0 Safari/537.36" etag="J5q9r-Qb-v_hzbR06Qgw" version="20.1.1" type="github">
  <diagram id="R2lEEEUBdFMjLlhIrx00" name="Page-1">
    <mxGraphModel dx="2555" dy="1090" grid="1" gridSize="10" guides="1" tooltips="1" connect="1" arrows="1" fold="1" page="1" pageScale="1" pageWidth="850" pageHeight="1100" math="0" shadow="0" extFonts="Permanent Marker^https://fonts.googleapis.com/css?family=Permanent+Marker">
      <root>
        <mxCell id="0" />
        <mxCell id="1" parent="0" />
        <mxCell id="4pYfHKhNL_kdhz4tqSBJ-1" value="HOSTEL" style="rounded=0;whiteSpace=wrap;html=1;direction=east;" vertex="1" parent="1">
          <mxGeometry x="530" y="180" width="120" height="60" as="geometry" />
        </mxCell>
        <mxCell id="4pYfHKhNL_kdhz4tqSBJ-3" value="HOSTEL_NAME" style="ellipse;whiteSpace=wrap;html=1;" vertex="1" parent="1">
          <mxGeometry x="500" y="80" width="100" height="50" as="geometry" />
        </mxCell>
        <mxCell id="4pYfHKhNL_kdhz4tqSBJ-4" value="NO_OF_ROOMS" style="ellipse;whiteSpace=wrap;html=1;" vertex="1" parent="1">
          <mxGeometry x="610" y="80" width="100" height="50" as="geometry" />
        </mxCell>
        <mxCell id="4pYfHKhNL_kdhz4tqSBJ-5" value="NO_OF_STUDENTS" style="ellipse;whiteSpace=wrap;html=1;" vertex="1" parent="1">
          <mxGeometry x="670" y="130" width="120" height="50" as="geometry" />
        </mxCell>
        <mxCell id="4pYfHKhNL_kdhz4tqSBJ-7" value="RESERVATION" style="rounded=0;whiteSpace=wrap;html=1;" vertex="1" parent="1">
          <mxGeometry x="110" y="160" width="100" height="50" as="geometry" />
        </mxCell>
        <mxCell id="4pYfHKhNL_kdhz4tqSBJ-9" value="CHECK_IN" style="ellipse;whiteSpace=wrap;html=1;" vertex="1" parent="1">
          <mxGeometry x="130" y="80" width="80" height="40" as="geometry" />
        </mxCell>
        <mxCell id="4pYfHKhNL_kdhz4tqSBJ-10" value="CHECK_OUT" style="ellipse;whiteSpace=wrap;html=1;" vertex="1" parent="1">
          <mxGeometry x="210" y="100" width="80" height="40" as="geometry" />
        </mxCell>
        <mxCell id="4pYfHKhNL_kdhz4tqSBJ-13" value="STUDENTS" style="rounded=0;whiteSpace=wrap;html=1;" vertex="1" parent="1">
          <mxGeometry x="160" y="350" width="120" height="60" as="geometry" />
        </mxCell>
        <mxCell id="4pYfHKhNL_kdhz4tqSBJ-14" value="ROOM" style="rounded=0;whiteSpace=wrap;html=1;" vertex="1" parent="1">
          <mxGeometry x="580" y="370" width="120" height="60" as="geometry" />
        </mxCell>
        <mxCell id="4pYfHKhNL_kdhz4tqSBJ-16" value="S_NAME" style="ellipse;whiteSpace=wrap;html=1;" vertex="1" parent="1">
          <mxGeometry x="15" y="290" width="90" height="40" as="geometry" />
        </mxCell>
        <mxCell id="4pYfHKhNL_kdhz4tqSBJ-18" value="ADDRESS" style="ellipse;whiteSpace=wrap;html=1;" vertex="1" parent="1">
          <mxGeometry x="20" y="445" width="80" height="40" as="geometry" />
        </mxCell>
        <mxCell id="4pYfHKhNL_kdhz4tqSBJ-19" value="DEPARTMENT" style="ellipse;whiteSpace=wrap;html=1;" vertex="1" parent="1">
          <mxGeometry x="70" y="492.5" width="100" height="40" as="geometry" />
        </mxCell>
        <mxCell id="4pYfHKhNL_kdhz4tqSBJ-21" value="YEAR" style="ellipse;whiteSpace=wrap;html=1;" vertex="1" parent="1">
          <mxGeometry x="152.5" y="462.5" width="80" height="30" as="geometry" />
        </mxCell>
        <mxCell id="4pYfHKhNL_kdhz4tqSBJ-23" value="ROOM_SIZE" style="ellipse;whiteSpace=wrap;html=1;" vertex="1" parent="1">
          <mxGeometry x="720" y="350" width="90" height="40" as="geometry" />
        </mxCell>
        <mxCell id="4pYfHKhNL_kdhz4tqSBJ-24" value="TYPE" style="ellipse;whiteSpace=wrap;html=1;" vertex="1" parent="1">
          <mxGeometry x="730" y="410" width="80" height="40" as="geometry" />
        </mxCell>
        <mxCell id="4pYfHKhNL_kdhz4tqSBJ-25" style="edgeStyle=orthogonalEdgeStyle;rounded=0;orthogonalLoop=1;jettySize=auto;html=1;exitX=0.5;exitY=1;exitDx=0;exitDy=0;startArrow=none;" edge="1" parent="1" source="4pYfHKhNL_kdhz4tqSBJ-78">
          <mxGeometry relative="1" as="geometry">
            <mxPoint x="65" y="410" as="sourcePoint" />
            <mxPoint x="65" y="410" as="targetPoint" />
          </mxGeometry>
        </mxCell>
        <mxCell id="4pYfHKhNL_kdhz4tqSBJ-26" style="edgeStyle=orthogonalEdgeStyle;rounded=0;orthogonalLoop=1;jettySize=auto;html=1;exitX=0.5;exitY=1;exitDx=0;exitDy=0;" edge="1" parent="1">
          <mxGeometry relative="1" as="geometry">
            <mxPoint x="55" y="135" as="sourcePoint" />
            <mxPoint x="55" y="135" as="targetPoint" />
          </mxGeometry>
        </mxCell>
        <mxCell id="4pYfHKhNL_kdhz4tqSBJ-33" value="RESERVATION_ID" style="ellipse;whiteSpace=wrap;html=1;align=center;fontStyle=4;" vertex="1" parent="1">
          <mxGeometry x="15" y="100" width="110" height="40" as="geometry" />
        </mxCell>
        <mxCell id="4pYfHKhNL_kdhz4tqSBJ-34" value="HOSTEL NAME" style="ellipse;whiteSpace=wrap;html=1;align=center;fontStyle=4;" vertex="1" parent="1">
          <mxGeometry x="390" y="100" width="100" height="40" as="geometry" />
        </mxCell>
        <mxCell id="4pYfHKhNL_kdhz4tqSBJ-35" value="MOBILE_NO" style="ellipse;whiteSpace=wrap;html=1;align=center;" vertex="1" parent="1">
          <mxGeometry x="10" y="340" width="100" height="40" as="geometry" />
        </mxCell>
        <mxCell id="4pYfHKhNL_kdhz4tqSBJ-36" value="S_ID" style="ellipse;whiteSpace=wrap;html=1;align=center;fontStyle=4;" vertex="1" parent="1">
          <mxGeometry x="110" y="280" width="80" height="30" as="geometry" />
        </mxCell>
        <mxCell id="4pYfHKhNL_kdhz4tqSBJ-37" value="ROOM_NO" style="ellipse;whiteSpace=wrap;html=1;align=center;fontStyle=4;" vertex="1" parent="1">
          <mxGeometry x="700" y="280" width="100" height="30" as="geometry" />
        </mxCell>
        <mxCell id="4pYfHKhNL_kdhz4tqSBJ-38" value="" style="endArrow=none;html=1;rounded=0;exitX=0.5;exitY=1;exitDx=0;exitDy=0;" edge="1" parent="1" source="4pYfHKhNL_kdhz4tqSBJ-9" target="4pYfHKhNL_kdhz4tqSBJ-7">
          <mxGeometry relative="1" as="geometry">
            <mxPoint x="370" y="290" as="sourcePoint" />
            <mxPoint x="530" y="290" as="targetPoint" />
          </mxGeometry>
        </mxCell>
        <mxCell id="4pYfHKhNL_kdhz4tqSBJ-39" value="" style="endArrow=none;html=1;rounded=0;exitX=0.5;exitY=1;exitDx=0;exitDy=0;" edge="1" parent="1" source="4pYfHKhNL_kdhz4tqSBJ-33" target="4pYfHKhNL_kdhz4tqSBJ-7">
          <mxGeometry relative="1" as="geometry">
            <mxPoint x="370" y="290" as="sourcePoint" />
            <mxPoint x="530" y="290" as="targetPoint" />
          </mxGeometry>
        </mxCell>
        <mxCell id="4pYfHKhNL_kdhz4tqSBJ-40" value="" style="endArrow=none;html=1;rounded=0;" edge="1" parent="1" source="4pYfHKhNL_kdhz4tqSBJ-10" target="4pYfHKhNL_kdhz4tqSBJ-7">
          <mxGeometry relative="1" as="geometry">
            <mxPoint x="370" y="290" as="sourcePoint" />
            <mxPoint x="530" y="290" as="targetPoint" />
          </mxGeometry>
        </mxCell>
        <mxCell id="4pYfHKhNL_kdhz4tqSBJ-42" value="" style="endArrow=none;html=1;rounded=0;entryX=0;entryY=0;entryDx=0;entryDy=0;" edge="1" parent="1" source="4pYfHKhNL_kdhz4tqSBJ-34" target="4pYfHKhNL_kdhz4tqSBJ-1">
          <mxGeometry relative="1" as="geometry">
            <mxPoint x="370" y="290" as="sourcePoint" />
            <mxPoint x="530" y="290" as="targetPoint" />
          </mxGeometry>
        </mxCell>
        <mxCell id="4pYfHKhNL_kdhz4tqSBJ-43" value="" style="endArrow=none;html=1;rounded=0;entryX=0.5;entryY=0;entryDx=0;entryDy=0;" edge="1" parent="1" source="4pYfHKhNL_kdhz4tqSBJ-3" target="4pYfHKhNL_kdhz4tqSBJ-1">
          <mxGeometry relative="1" as="geometry">
            <mxPoint x="370" y="290" as="sourcePoint" />
            <mxPoint x="550" y="200" as="targetPoint" />
          </mxGeometry>
        </mxCell>
        <mxCell id="4pYfHKhNL_kdhz4tqSBJ-44" value="" style="endArrow=none;html=1;rounded=0;entryX=0.75;entryY=0;entryDx=0;entryDy=0;" edge="1" parent="1" source="4pYfHKhNL_kdhz4tqSBJ-4" target="4pYfHKhNL_kdhz4tqSBJ-1">
          <mxGeometry relative="1" as="geometry">
            <mxPoint x="370" y="290" as="sourcePoint" />
            <mxPoint x="590" y="200" as="targetPoint" />
          </mxGeometry>
        </mxCell>
        <mxCell id="4pYfHKhNL_kdhz4tqSBJ-45" value="" style="endArrow=none;html=1;rounded=0;entryX=1;entryY=0;entryDx=0;entryDy=0;" edge="1" parent="1" source="4pYfHKhNL_kdhz4tqSBJ-5" target="4pYfHKhNL_kdhz4tqSBJ-1">
          <mxGeometry relative="1" as="geometry">
            <mxPoint x="370" y="290" as="sourcePoint" />
            <mxPoint x="530" y="290" as="targetPoint" />
          </mxGeometry>
        </mxCell>
        <mxCell id="4pYfHKhNL_kdhz4tqSBJ-46" value="" style="endArrow=none;html=1;rounded=0;entryX=0;entryY=0.5;entryDx=0;entryDy=0;" edge="1" parent="1" source="4pYfHKhNL_kdhz4tqSBJ-35" target="4pYfHKhNL_kdhz4tqSBJ-13">
          <mxGeometry relative="1" as="geometry">
            <mxPoint x="370" y="410" as="sourcePoint" />
            <mxPoint x="530" y="410" as="targetPoint" />
          </mxGeometry>
        </mxCell>
        <mxCell id="4pYfHKhNL_kdhz4tqSBJ-47" value="" style="endArrow=none;html=1;rounded=0;entryX=0.006;entryY=0.878;entryDx=0;entryDy=0;entryPerimeter=0;" edge="1" parent="1" source="4pYfHKhNL_kdhz4tqSBJ-18" target="4pYfHKhNL_kdhz4tqSBJ-13">
          <mxGeometry relative="1" as="geometry">
            <mxPoint x="370" y="410" as="sourcePoint" />
            <mxPoint x="530" y="410" as="targetPoint" />
          </mxGeometry>
        </mxCell>
        <mxCell id="4pYfHKhNL_kdhz4tqSBJ-48" value="" style="endArrow=none;html=1;rounded=0;entryX=0;entryY=0.25;entryDx=0;entryDy=0;" edge="1" parent="1" source="4pYfHKhNL_kdhz4tqSBJ-16" target="4pYfHKhNL_kdhz4tqSBJ-13">
          <mxGeometry relative="1" as="geometry">
            <mxPoint x="370" y="410" as="sourcePoint" />
            <mxPoint x="530" y="410" as="targetPoint" />
          </mxGeometry>
        </mxCell>
        <mxCell id="4pYfHKhNL_kdhz4tqSBJ-49" value="" style="endArrow=none;html=1;rounded=0;exitX=0.75;exitY=0.822;exitDx=0;exitDy=0;exitPerimeter=0;" edge="1" parent="1" source="4pYfHKhNL_kdhz4tqSBJ-36" target="4pYfHKhNL_kdhz4tqSBJ-13">
          <mxGeometry relative="1" as="geometry">
            <mxPoint x="370" y="410" as="sourcePoint" />
            <mxPoint x="530" y="410" as="targetPoint" />
          </mxGeometry>
        </mxCell>
        <mxCell id="4pYfHKhNL_kdhz4tqSBJ-50" value="" style="endArrow=none;html=1;rounded=0;entryX=0.25;entryY=1;entryDx=0;entryDy=0;" edge="1" parent="1" source="4pYfHKhNL_kdhz4tqSBJ-19" target="4pYfHKhNL_kdhz4tqSBJ-13">
          <mxGeometry relative="1" as="geometry">
            <mxPoint x="370" y="410" as="sourcePoint" />
            <mxPoint x="530" y="410" as="targetPoint" />
          </mxGeometry>
        </mxCell>
        <mxCell id="4pYfHKhNL_kdhz4tqSBJ-51" value="" style="endArrow=none;html=1;rounded=0;exitX=0.5;exitY=0;exitDx=0;exitDy=0;entryX=0.444;entryY=1.022;entryDx=0;entryDy=0;entryPerimeter=0;" edge="1" parent="1" source="4pYfHKhNL_kdhz4tqSBJ-21" target="4pYfHKhNL_kdhz4tqSBJ-13">
          <mxGeometry relative="1" as="geometry">
            <mxPoint x="370" y="410" as="sourcePoint" />
            <mxPoint x="530" y="410" as="targetPoint" />
          </mxGeometry>
        </mxCell>
        <mxCell id="4pYfHKhNL_kdhz4tqSBJ-57" value="" style="endArrow=none;html=1;rounded=0;entryX=0.75;entryY=0;entryDx=0;entryDy=0;" edge="1" parent="1" source="4pYfHKhNL_kdhz4tqSBJ-37" target="4pYfHKhNL_kdhz4tqSBJ-14">
          <mxGeometry relative="1" as="geometry">
            <mxPoint x="630" y="320" as="sourcePoint" />
            <mxPoint x="530" y="370" as="targetPoint" />
          </mxGeometry>
        </mxCell>
        <mxCell id="4pYfHKhNL_kdhz4tqSBJ-58" value="" style="endArrow=none;html=1;rounded=0;entryX=0;entryY=0.5;entryDx=0;entryDy=0;" edge="1" parent="1" source="4pYfHKhNL_kdhz4tqSBJ-14" target="4pYfHKhNL_kdhz4tqSBJ-23">
          <mxGeometry relative="1" as="geometry">
            <mxPoint x="370" y="370" as="sourcePoint" />
            <mxPoint x="690" y="390" as="targetPoint" />
          </mxGeometry>
        </mxCell>
        <mxCell id="4pYfHKhNL_kdhz4tqSBJ-59" value="" style="endArrow=none;html=1;rounded=0;entryX=0;entryY=0.5;entryDx=0;entryDy=0;exitX=1;exitY=0.75;exitDx=0;exitDy=0;" edge="1" parent="1" source="4pYfHKhNL_kdhz4tqSBJ-14" target="4pYfHKhNL_kdhz4tqSBJ-24">
          <mxGeometry relative="1" as="geometry">
            <mxPoint x="660" y="420" as="sourcePoint" />
            <mxPoint x="530" y="350" as="targetPoint" />
          </mxGeometry>
        </mxCell>
        <mxCell id="4pYfHKhNL_kdhz4tqSBJ-60" value="MESS" style="shape=ext;margin=3;double=1;whiteSpace=wrap;html=1;align=center;" vertex="1" parent="1">
          <mxGeometry x="470" y="430" width="70" height="40" as="geometry" />
        </mxCell>
        <mxCell id="4pYfHKhNL_kdhz4tqSBJ-61" value="VEG" style="ellipse;whiteSpace=wrap;html=1;align=center;" vertex="1" parent="1">
          <mxGeometry x="555" y="485" width="70" height="25" as="geometry" />
        </mxCell>
        <mxCell id="4pYfHKhNL_kdhz4tqSBJ-62" value="NON_VEG" style="ellipse;whiteSpace=wrap;html=1;align=center;" vertex="1" parent="1">
          <mxGeometry x="490" y="525" width="80" height="25" as="geometry" />
        </mxCell>
        <mxCell id="4pYfHKhNL_kdhz4tqSBJ-63" value="NULL" style="ellipse;whiteSpace=wrap;html=1;align=center;" vertex="1" parent="1">
          <mxGeometry x="405" y="500" width="70" height="25" as="geometry" />
        </mxCell>
        <mxCell id="4pYfHKhNL_kdhz4tqSBJ-64" value="FEE" style="ellipse;whiteSpace=wrap;html=1;align=center;" vertex="1" parent="1">
          <mxGeometry x="260" y="135" width="100" height="40" as="geometry" />
        </mxCell>
        <mxCell id="4pYfHKhNL_kdhz4tqSBJ-65" value="" style="endArrow=none;html=1;rounded=0;entryX=0;entryY=0.5;entryDx=0;entryDy=0;" edge="1" parent="1" source="4pYfHKhNL_kdhz4tqSBJ-7" target="4pYfHKhNL_kdhz4tqSBJ-64">
          <mxGeometry relative="1" as="geometry">
            <mxPoint x="440" y="210" as="sourcePoint" />
            <mxPoint x="350" y="190" as="targetPoint" />
          </mxGeometry>
        </mxCell>
        <mxCell id="4pYfHKhNL_kdhz4tqSBJ-68" value="" style="endArrow=none;html=1;rounded=0;exitX=0.5;exitY=0;exitDx=0;exitDy=0;entryX=0;entryY=1;entryDx=0;entryDy=0;" edge="1" parent="1" source="4pYfHKhNL_kdhz4tqSBJ-63" target="4pYfHKhNL_kdhz4tqSBJ-60">
          <mxGeometry relative="1" as="geometry">
            <mxPoint x="440" y="390" as="sourcePoint" />
            <mxPoint x="600" y="390" as="targetPoint" />
          </mxGeometry>
        </mxCell>
        <mxCell id="4pYfHKhNL_kdhz4tqSBJ-69" value="" style="endArrow=none;html=1;rounded=0;exitX=0.5;exitY=0;exitDx=0;exitDy=0;entryX=0.4;entryY=1.017;entryDx=0;entryDy=0;entryPerimeter=0;" edge="1" parent="1" source="4pYfHKhNL_kdhz4tqSBJ-62" target="4pYfHKhNL_kdhz4tqSBJ-60">
          <mxGeometry relative="1" as="geometry">
            <mxPoint x="440" y="390" as="sourcePoint" />
            <mxPoint x="480" y="500" as="targetPoint" />
          </mxGeometry>
        </mxCell>
        <mxCell id="4pYfHKhNL_kdhz4tqSBJ-70" value="" style="endArrow=none;html=1;rounded=0;exitX=0;exitY=0;exitDx=0;exitDy=0;" edge="1" parent="1" source="4pYfHKhNL_kdhz4tqSBJ-61" target="4pYfHKhNL_kdhz4tqSBJ-60">
          <mxGeometry relative="1" as="geometry">
            <mxPoint x="440" y="390" as="sourcePoint" />
            <mxPoint x="600" y="390" as="targetPoint" />
          </mxGeometry>
        </mxCell>
        <mxCell id="4pYfHKhNL_kdhz4tqSBJ-71" value="PAYMENT" style="whiteSpace=wrap;html=1;align=center;" vertex="1" parent="1">
          <mxGeometry x="220" y="560" width="100" height="40" as="geometry" />
        </mxCell>
        <mxCell id="4pYfHKhNL_kdhz4tqSBJ-73" value="PAYMENT_ID" style="ellipse;whiteSpace=wrap;html=1;align=center;fontStyle=4;" vertex="1" parent="1">
          <mxGeometry x="110" y="590" width="80" height="30" as="geometry" />
        </mxCell>
        <mxCell id="4pYfHKhNL_kdhz4tqSBJ-74" value="AMOUNT" style="ellipse;whiteSpace=wrap;html=1;align=center;" vertex="1" parent="1">
          <mxGeometry x="125" y="640" width="80" height="30" as="geometry" />
        </mxCell>
        <mxCell id="4pYfHKhNL_kdhz4tqSBJ-76" style="edgeStyle=orthogonalEdgeStyle;rounded=0;orthogonalLoop=1;jettySize=auto;html=1;exitX=0.5;exitY=1;exitDx=0;exitDy=0;" edge="1" parent="1" source="4pYfHKhNL_kdhz4tqSBJ-62" target="4pYfHKhNL_kdhz4tqSBJ-62">
          <mxGeometry relative="1" as="geometry" />
        </mxCell>
        <mxCell id="4pYfHKhNL_kdhz4tqSBJ-78" value="GENDER" style="ellipse;whiteSpace=wrap;html=1;align=center;" vertex="1" parent="1">
          <mxGeometry x="10" y="400" width="100" height="30" as="geometry" />
        </mxCell>
        <mxCell id="4pYfHKhNL_kdhz4tqSBJ-79" value="" style="edgeStyle=orthogonalEdgeStyle;rounded=0;orthogonalLoop=1;jettySize=auto;html=1;exitX=0.5;exitY=1;exitDx=0;exitDy=0;endArrow=none;" edge="1" parent="1" target="4pYfHKhNL_kdhz4tqSBJ-78">
          <mxGeometry relative="1" as="geometry">
            <mxPoint x="65" y="410" as="sourcePoint" />
            <mxPoint x="65" y="410" as="targetPoint" />
          </mxGeometry>
        </mxCell>
        <mxCell id="4pYfHKhNL_kdhz4tqSBJ-80" value="" style="endArrow=none;html=1;rounded=0;exitX=1;exitY=0;exitDx=0;exitDy=0;entryX=0;entryY=0.75;entryDx=0;entryDy=0;" edge="1" parent="1" source="4pYfHKhNL_kdhz4tqSBJ-78" target="4pYfHKhNL_kdhz4tqSBJ-13">
          <mxGeometry relative="1" as="geometry">
            <mxPoint x="360" y="339" as="sourcePoint" />
            <mxPoint x="520" y="339" as="targetPoint" />
          </mxGeometry>
        </mxCell>
        <mxCell id="4pYfHKhNL_kdhz4tqSBJ-81" value="NO_OF_MONTHS" style="ellipse;whiteSpace=wrap;html=1;align=center;" vertex="1" parent="1">
          <mxGeometry x="215" y="650" width="110" height="40" as="geometry" />
        </mxCell>
        <mxCell id="4pYfHKhNL_kdhz4tqSBJ-82" value="TOTAL_PAYMENT" style="ellipse;whiteSpace=wrap;html=1;align=center;" vertex="1" parent="1">
          <mxGeometry x="330" y="620" width="120" height="40" as="geometry" />
        </mxCell>
        <mxCell id="4pYfHKhNL_kdhz4tqSBJ-83" value="" style="endArrow=none;html=1;rounded=0;exitX=1;exitY=0;exitDx=0;exitDy=0;entryX=0;entryY=0.75;entryDx=0;entryDy=0;" edge="1" parent="1" source="4pYfHKhNL_kdhz4tqSBJ-73" target="4pYfHKhNL_kdhz4tqSBJ-71">
          <mxGeometry relative="1" as="geometry">
            <mxPoint x="440" y="470" as="sourcePoint" />
            <mxPoint x="320" y="560" as="targetPoint" />
          </mxGeometry>
        </mxCell>
        <mxCell id="4pYfHKhNL_kdhz4tqSBJ-84" value="" style="endArrow=none;html=1;rounded=0;entryX=0.25;entryY=1;entryDx=0;entryDy=0;exitX=0.646;exitY=0.2;exitDx=0;exitDy=0;exitPerimeter=0;" edge="1" parent="1" source="4pYfHKhNL_kdhz4tqSBJ-74" target="4pYfHKhNL_kdhz4tqSBJ-71">
          <mxGeometry relative="1" as="geometry">
            <mxPoint x="180" y="640" as="sourcePoint" />
            <mxPoint x="600" y="460" as="targetPoint" />
          </mxGeometry>
        </mxCell>
        <mxCell id="4pYfHKhNL_kdhz4tqSBJ-85" value="" style="endArrow=none;html=1;rounded=0;exitX=0.5;exitY=1;exitDx=0;exitDy=0;entryX=0.5;entryY=0;entryDx=0;entryDy=0;" edge="1" parent="1" source="4pYfHKhNL_kdhz4tqSBJ-71" target="4pYfHKhNL_kdhz4tqSBJ-81">
          <mxGeometry relative="1" as="geometry">
            <mxPoint x="440" y="460" as="sourcePoint" />
            <mxPoint x="320" y="640" as="targetPoint" />
          </mxGeometry>
        </mxCell>
        <mxCell id="4pYfHKhNL_kdhz4tqSBJ-88" value="" style="endArrow=none;html=1;rounded=0;exitX=0.82;exitY=1;exitDx=0;exitDy=0;exitPerimeter=0;entryX=0;entryY=0;entryDx=0;entryDy=0;" edge="1" parent="1" source="4pYfHKhNL_kdhz4tqSBJ-71" target="4pYfHKhNL_kdhz4tqSBJ-82">
          <mxGeometry relative="1" as="geometry">
            <mxPoint x="440" y="460" as="sourcePoint" />
            <mxPoint x="600" y="460" as="targetPoint" />
          </mxGeometry>
        </mxCell>
        <mxCell id="4pYfHKhNL_kdhz4tqSBJ-89" value="HAS" style="shape=rhombus;perimeter=rhombusPerimeter;whiteSpace=wrap;html=1;align=center;" vertex="1" parent="1">
          <mxGeometry x="210" y="290" width="80" height="40" as="geometry" />
        </mxCell>
        <mxCell id="4pYfHKhNL_kdhz4tqSBJ-93" value="" style="endArrow=none;html=1;rounded=0;exitX=0.75;exitY=0;exitDx=0;exitDy=0;entryX=0.5;entryY=1;entryDx=0;entryDy=0;" edge="1" parent="1" source="4pYfHKhNL_kdhz4tqSBJ-13" target="4pYfHKhNL_kdhz4tqSBJ-89">
          <mxGeometry relative="1" as="geometry">
            <mxPoint x="270" y="320" as="sourcePoint" />
            <mxPoint x="430" y="320" as="targetPoint" />
          </mxGeometry>
        </mxCell>
        <mxCell id="4pYfHKhNL_kdhz4tqSBJ-95" value="" style="endArrow=none;html=1;rounded=0;exitX=0.5;exitY=0;exitDx=0;exitDy=0;entryX=0;entryY=0.75;entryDx=0;entryDy=0;" edge="1" parent="1" source="4pYfHKhNL_kdhz4tqSBJ-89" target="4pYfHKhNL_kdhz4tqSBJ-1">
          <mxGeometry relative="1" as="geometry">
            <mxPoint x="270" y="320" as="sourcePoint" />
            <mxPoint x="490" y="240" as="targetPoint" />
            <Array as="points">
              <mxPoint x="250" y="220" />
            </Array>
          </mxGeometry>
        </mxCell>
        <mxCell id="4pYfHKhNL_kdhz4tqSBJ-110" style="edgeStyle=orthogonalEdgeStyle;rounded=0;orthogonalLoop=1;jettySize=auto;html=1;exitX=0.5;exitY=1;exitDx=0;exitDy=0;" edge="1" parent="1" source="4pYfHKhNL_kdhz4tqSBJ-36" target="4pYfHKhNL_kdhz4tqSBJ-36">
          <mxGeometry relative="1" as="geometry" />
        </mxCell>
        <mxCell id="4pYfHKhNL_kdhz4tqSBJ-111" value="" style="endArrow=none;html=1;rounded=0;exitX=1;exitY=0.75;exitDx=0;exitDy=0;" edge="1" parent="1" source="4pYfHKhNL_kdhz4tqSBJ-7">
          <mxGeometry relative="1" as="geometry">
            <mxPoint x="240" y="220" as="sourcePoint" />
            <mxPoint x="530" y="210" as="targetPoint" />
          </mxGeometry>
        </mxCell>
        <mxCell id="4pYfHKhNL_kdhz4tqSBJ-112" value="" style="endArrow=none;html=1;rounded=0;entryX=0.5;entryY=1;entryDx=0;entryDy=0;" edge="1" parent="1" source="4pYfHKhNL_kdhz4tqSBJ-13" target="4pYfHKhNL_kdhz4tqSBJ-113">
          <mxGeometry relative="1" as="geometry">
            <mxPoint x="270" y="330" as="sourcePoint" />
            <mxPoint x="430" y="330" as="targetPoint" />
          </mxGeometry>
        </mxCell>
        <mxCell id="4pYfHKhNL_kdhz4tqSBJ-113" value="DO" style="shape=rhombus;perimeter=rhombusPerimeter;whiteSpace=wrap;html=1;align=center;" vertex="1" parent="1">
          <mxGeometry x="170" y="240" width="45" height="30" as="geometry" />
        </mxCell>
        <mxCell id="4pYfHKhNL_kdhz4tqSBJ-118" value="" style="endArrow=none;html=1;rounded=0;exitX=0.75;exitY=1;exitDx=0;exitDy=0;entryX=0.5;entryY=0;entryDx=0;entryDy=0;" edge="1" parent="1" source="4pYfHKhNL_kdhz4tqSBJ-7" target="4pYfHKhNL_kdhz4tqSBJ-113">
          <mxGeometry relative="1" as="geometry">
            <mxPoint x="270" y="330" as="sourcePoint" />
            <mxPoint x="200" y="250" as="targetPoint" />
          </mxGeometry>
        </mxCell>
        <mxCell id="4pYfHKhNL_kdhz4tqSBJ-121" value="PAYS" style="shape=rhombus;perimeter=rhombusPerimeter;whiteSpace=wrap;html=1;align=center;" vertex="1" parent="1">
          <mxGeometry x="250" y="492.5" width="70" height="30" as="geometry" />
        </mxCell>
        <mxCell id="4pYfHKhNL_kdhz4tqSBJ-123" value="" style="endArrow=none;html=1;rounded=0;exitX=0.75;exitY=1;exitDx=0;exitDy=0;entryX=0.5;entryY=0;entryDx=0;entryDy=0;" edge="1" parent="1" source="4pYfHKhNL_kdhz4tqSBJ-13" target="4pYfHKhNL_kdhz4tqSBJ-121">
          <mxGeometry relative="1" as="geometry">
            <mxPoint x="250" y="530" as="sourcePoint" />
            <mxPoint x="410" y="530" as="targetPoint" />
          </mxGeometry>
        </mxCell>
        <mxCell id="4pYfHKhNL_kdhz4tqSBJ-124" value="" style="endArrow=none;html=1;rounded=0;" edge="1" parent="1" target="4pYfHKhNL_kdhz4tqSBJ-71">
          <mxGeometry relative="1" as="geometry">
            <mxPoint x="280" y="520" as="sourcePoint" />
            <mxPoint x="410" y="530" as="targetPoint" />
          </mxGeometry>
        </mxCell>
        <mxCell id="4pYfHKhNL_kdhz4tqSBJ-127" value="HAVE" style="shape=rhombus;perimeter=rhombusPerimeter;whiteSpace=wrap;html=1;align=center;" vertex="1" parent="1">
          <mxGeometry x="570" y="290" width="60" height="40" as="geometry" />
        </mxCell>
        <mxCell id="4pYfHKhNL_kdhz4tqSBJ-129" value="" style="endArrow=none;html=1;rounded=0;exitX=0.5;exitY=1;exitDx=0;exitDy=0;entryX=0.5;entryY=0;entryDx=0;entryDy=0;" edge="1" parent="1" source="4pYfHKhNL_kdhz4tqSBJ-1" target="4pYfHKhNL_kdhz4tqSBJ-127">
          <mxGeometry relative="1" as="geometry">
            <mxPoint x="440" y="270" as="sourcePoint" />
            <mxPoint x="600" y="270" as="targetPoint" />
          </mxGeometry>
        </mxCell>
        <mxCell id="4pYfHKhNL_kdhz4tqSBJ-130" value="" style="endArrow=none;html=1;rounded=0;exitX=0.5;exitY=1;exitDx=0;exitDy=0;entryX=0.25;entryY=0;entryDx=0;entryDy=0;" edge="1" parent="1" source="4pYfHKhNL_kdhz4tqSBJ-127" target="4pYfHKhNL_kdhz4tqSBJ-14">
          <mxGeometry relative="1" as="geometry">
            <mxPoint x="440" y="270" as="sourcePoint" />
            <mxPoint x="600" y="270" as="targetPoint" />
          </mxGeometry>
        </mxCell>
        <mxCell id="4pYfHKhNL_kdhz4tqSBJ-131" value="" style="endArrow=none;html=1;rounded=0;exitX=0.5;exitY=0;exitDx=0;exitDy=0;" edge="1" parent="1" source="4pYfHKhNL_kdhz4tqSBJ-60">
          <mxGeometry relative="1" as="geometry">
            <mxPoint x="440" y="270" as="sourcePoint" />
            <mxPoint x="540" y="240" as="targetPoint" />
          </mxGeometry>
        </mxCell>
        <mxCell id="4pYfHKhNL_kdhz4tqSBJ-132" value="STAYS _IN" style="shape=rhombus;perimeter=rhombusPerimeter;whiteSpace=wrap;html=1;align=center;" vertex="1" parent="1">
          <mxGeometry x="350" y="370" width="90" height="40" as="geometry" />
        </mxCell>
        <mxCell id="4pYfHKhNL_kdhz4tqSBJ-134" value="" style="endArrow=none;html=1;rounded=0;exitX=1;exitY=0.5;exitDx=0;exitDy=0;entryX=0;entryY=0.5;entryDx=0;entryDy=0;" edge="1" parent="1" source="4pYfHKhNL_kdhz4tqSBJ-13" target="4pYfHKhNL_kdhz4tqSBJ-132">
          <mxGeometry relative="1" as="geometry">
            <mxPoint x="300" y="530" as="sourcePoint" />
            <mxPoint x="340" y="430" as="targetPoint" />
          </mxGeometry>
        </mxCell>
        <mxCell id="4pYfHKhNL_kdhz4tqSBJ-135" value="" style="endArrow=none;html=1;rounded=0;exitX=1;exitY=0.5;exitDx=0;exitDy=0;entryX=0;entryY=0.5;entryDx=0;entryDy=0;" edge="1" parent="1" source="4pYfHKhNL_kdhz4tqSBJ-132" target="4pYfHKhNL_kdhz4tqSBJ-14">
          <mxGeometry relative="1" as="geometry">
            <mxPoint x="300" y="530" as="sourcePoint" />
            <mxPoint x="460" y="530" as="targetPoint" />
          </mxGeometry>
        </mxCell>
      </root>
    </mxGraphModel>
  </diagram>
</mxfile>
